<?xml version="1.0" encoding="iso-8859-1"?>
<!-- Generator: Adobe Illustrator 19.0.0, SVG Export Plug-In . SVG Version: 6.00 Build 0)  -->
<svg version="1.1" id="Layer_1" xmlns="http://www.w3.org/2000/svg" xmlns:xlink="http://www.w3.org/1999/xlink" x="0px" y="0px"
	 viewBox="0 0 512.001 512.001" style="enable-background:new 0 0 512.001 512.001;" xml:space="preserve">
<polygon style="fill:#fff;" points="256,340.318 301.387,294.931 301.387,262.504 210.612,262.504 210.612,294.93 "/>
<rect x="210.614" y="139.135" style="fill:#fff;" width="90.778" height="55.718"/>
<path d="M202.322,211.434h107.354c4.579,0,8.29-3.712,8.29-8.29v-72.296c0-4.578-3.71-8.29-8.29-8.29H202.322
	c-4.579,0-8.29,3.712-8.29,8.29v72.296C194.033,207.724,197.744,211.434,202.322,211.434z M210.612,139.138h90.775v55.717h-90.775
	L210.612,139.138L210.612,139.138z"/>
<rect x="210.614" y="16.579" style="fill:#fff;" width="90.778" height="55.718"/>
<path d="M202.322,88.876h107.354c4.579,0,8.29-3.712,8.29-8.29V8.29c0-4.578-3.71-8.29-8.29-8.29H202.322
	c-4.579,0-8.29,3.712-8.29,8.29v72.296C194.033,85.164,197.744,88.876,202.322,88.876z M210.612,16.579h90.775v55.717h-90.775
	L210.612,16.579L210.612,16.579z"/>
<rect x="297.667" y="279.75" transform="matrix(0.7071 0.7071 -0.7071 0.7071 341.5311 -142.7297)" style="fill:#fff;" width="90.777" height="122.3"/>
<path d="M435.977,323.887l-75.911-75.911c-1.555-1.555-3.663-2.428-5.862-2.428c-2.2,0-4.306,0.873-5.862,2.428l-30.375,30.375
	v-24.137c0-4.578-3.71-8.29-8.29-8.29H202.322c-4.579,0-8.29,3.712-8.29,8.29v24.136l-30.374-30.374
	c-3.237-3.237-8.485-3.237-11.724,0l-75.912,75.911c-1.554,1.554-2.427,3.663-2.427,5.861c0,2.198,0.873,4.307,2.427,5.861
	l42.453,42.452c3.237,3.237,8.484,3.237,11.724,0l0,0c3.237-3.237,3.237-8.486,0-11.723l-36.592-36.591l64.188-64.188L320.034,427.8
	l-64.187,64.188l-83.643-83.643c-3.239-3.237-8.485-3.237-11.724,0l0,0c-3.237,3.237-3.237,8.486,0,11.723l89.506,89.506
	c1.555,1.555,3.663,2.428,5.863,2.428c0.051,0,0.102-0.007,0.153-0.008c0.051,0.001,0.102,0.008,0.153,0.008
	c2.198,0,4.306-0.873,5.862-2.428l173.963-173.962C439.214,332.373,439.214,327.124,435.977,323.887z M331.911,416.228
	l-64.187-64.188l86.481-86.48l64.187,64.188L331.911,416.228z M301.387,262.504v32.427L256,340.318l-45.388-45.388v-32.426H301.387z
	"/>
<path style="fill:#fff;" d="M172.204,408.343l83.643,83.643l64.187-64.188L157.797,265.561l-64.188,64.188l36.592,36.591
	c3.237,3.237,3.237,8.486,0,11.723l0,0l30.28,30.28C163.719,405.107,168.967,405.107,172.204,408.343z"/>
<g>
</g>
<g>
</g>
<g>
</g>
<g>
</g>
<g>
</g>
<g>
</g>
<g>
</g>
<g>
</g>
<g>
</g>
<g>
</g>
<g>
</g>
<g>
</g>
<g>
</g>
<g>
</g>
<g>
</g>
</svg>
