<svg xmlns="http://www.w3.org/2000/svg" viewBox="0 0 512.001 512.001"><path fill="#fff" d="M256 340.318l45.387-45.387v-32.427h-90.775v32.426zm-45.386-201.183h90.778v55.718h-90.778z"/><path d="M202.322 211.434h107.354a8.29 8.29 0 008.29-8.29v-72.296a8.29 8.29 0 00-8.29-8.29H202.322a8.29 8.29 0 00-8.29 8.29v72.296a8.29 8.29 0 008.29 8.29zm8.29-72.296h90.775v55.717h-90.775v-55.717z"/><path fill="#fff" d="M210.614 16.579h90.778v55.718h-90.778z"/><path d="M202.322 88.876h107.354a8.29 8.29 0 008.29-8.29V8.29a8.29 8.29 0 00-8.29-8.29H202.322a8.29 8.29 0 00-8.29 8.29v72.296a8.291 8.291 0 008.29 8.29zm8.29-72.297h90.775v55.717h-90.775V16.579z"/><path fill="#fff" d="M354.2 265.562l64.189 64.188-86.479 86.479-64.188-64.189z"/><path d="M435.977 323.887l-75.911-75.911a8.289 8.289 0 00-11.724 0l-30.375 30.375v-24.137a8.29 8.29 0 00-8.29-8.29H202.322a8.29 8.29 0 00-8.29 8.29v24.136l-30.374-30.374a8.291 8.291 0 00-11.724 0l-75.912 75.911a8.29 8.29 0 000 11.722l42.453 42.452a8.29 8.29 0 0011.724-11.723l-36.592-36.591 64.188-64.188L320.034 427.8l-64.187 64.188-83.643-83.643a8.29 8.29 0 00-11.724 11.723l89.506 89.506a8.29 8.29 0 005.863 2.428c.051 0 .102-.007.153-.008.051.001.102.008.153.008a8.292 8.292 0 005.862-2.428L435.98 335.612a8.295 8.295 0 00-.003-11.725zm-104.066 92.341l-64.187-64.188 86.481-86.48 64.187 64.188-86.481 86.48zm-30.524-153.724v32.427L256 340.318l-45.388-45.388v-32.426h90.775z"/><path d="M172.204 408.343l83.643 83.643 64.187-64.188-162.237-162.237-64.188 64.188 36.592 36.591a8.29 8.29 0 010 11.723l30.28 30.28a8.292 8.292 0 0111.723 0z" fill="#fff"/></svg>